<svg width="48" height="46" viewBox="0 0 48 46" fill="none" xmlns="http://www.w3.org/2000/svg">
<rect width="48" height="46" rx="23" fill="#222222"/>
<path d="M14.3039 29.2324L18.7805 34.8283L22.1328 28.1368L27.6717 41.9742L27.1759 27.9052L35.1391 41.2681L30.0834 24.7146L41.4562 33.36L34.5862 21.4212L42.283 24.7557" stroke="white" stroke-width="1.28497"/>
<path d="M20.5536 31.1911L20.6679 31.239L29.7273 31.4787L29.9186 31.267L36.5976 23.8773L36.6747 23.7924L36.7157 23.6861L38.8393 18.2266C40.1579 19.8458 41.147 21.7323 41.7345 23.7671C42.4198 26.1408 42.5388 28.6401 42.0793 31.0428C41.6198 33.4455 40.5968 35.6754 39.1038 37.5354C37.611 39.3952 35.6947 40.8277 33.5259 41.7081C32.5341 42.1108 31.3 42.1486 29.9501 42.0237C28.5677 41.8957 27.2716 41.6268 25.9689 41.4584C24.9398 41.3253 24.2988 40.8738 23.6393 40.2307C22.9988 39.6061 22.2317 38.6615 21.16 37.8858C19.0903 36.3879 17.3258 35.1418 16.253 33.0196C15.9488 32.418 15.6313 31.8987 15.3339 31.4289C15.0313 30.9511 14.763 30.5437 14.5271 30.1244C14.2151 29.5698 13.9767 29.0176 13.8559 28.3566L20.5536 31.1911Z" stroke="white" stroke-width="1.28497"/>
<path d="M34.8544 3.75592L30.7295 9.97266" stroke="white" stroke-width="1.79952"/>
<path d="M30.3692 19.2408C29.7028 19.2232 28.735 17.5435 27.9931 15.9687L25.5848 15.3265L27.2234 14.1872C27.878 12.5478 29.6587 9.01024 31.5449 7.97571C33.4311 6.94118 34.1666 13.0154 34.2986 16.1818L35.8714 18.4827C34.4304 18.7458 31.3125 19.2658 30.3692 19.2408Z" fill="white"/>
<path d="M20.1531 25.7479C22.3541 25.8062 21.4617 20.6616 20.7404 18.082L22.9012 15.4281L14.0578 14.7423L7.17919 12.7529C6.78622 12.9684 6.00033 13.535 6.00049 14.0772C6.00066 14.6194 10.7175 16.2354 13.0759 16.9755C13.0772 21.1326 15.96 23.1518 17.4013 23.6418L20.1531 25.7479Z" fill="white"/>
</svg>
